<svg id="Capa_1" enable-background="new 0 0 512 512" height="512" viewBox="0 0 512 512" width="512" xmlns="http://www.w3.org/2000/svg"><g><path d="m347.221 193.073h-107.168l-20.016 83.801 127.184-20.016z" fill="#ffda44"/><path d="m132.886 193.073v63.785h31.893l75.274 20.016v-83.801z" fill="#fff68e"/><path d="m379.114 256.858h-139.061l-20.016 83.802 159.077-20.016z" fill="#ffb655"/><path d="m164.779 256.858v63.786l75.274 20.016v-83.802z" fill="#ffda44"/><path d="m379.114 320.644h-139.061l-20.016 83.801 127.184-20.016h31.893z" fill="#ffda44"/><path d="m164.779 320.644v63.785l75.274 20.016v-83.801z" fill="#fff68e"/><path d="m347.221 448.215v-63.786h-107.168l-20.016 83.802z" fill="#ffb655"/><path d="m132.886 448.215 107.167 20.016v-83.802h-107.167z" fill="#ffda44"/><path d="m347.221 512v-63.785h-107.168l-20.016 31.892 20.016 31.893z" fill="#ffda44"/><path d="m132.886 448.215h107.167v63.785h-107.167z" fill="#fff68e"/><path d="m344.096 104.042c0-57.461-46.581-104.042-104.042-104.042l-20.016 104.042 20.016 104.042c57.461.001 104.042-46.581 104.042-104.042z" fill="#ffb655"/><path d="m136.011 104.042c0 57.461 46.581 104.042 104.042 104.042v-208.084c-57.461 0-104.042 46.581-104.042 104.042z" fill="#ffda44"/><path d="m314.096 104.042c0-40.827-33.215-74.042-74.042-74.042l-20.016 74.042 20.016 74.042c40.827.001 74.042-33.214 74.042-74.042z" fill="#ffda44"/><path d="m166.011 104.042c0 40.827 33.215 74.042 74.042 74.042v-148.084c-40.827 0-74.042 33.215-74.042 74.042z" fill="#fff68e"/></g></svg>