<?xml version="1.0" encoding="UTF-8"?><svg xmlns="http://www.w3.org/2000/svg" viewBox="0 0 50 50"><path style="line-height:normal;text-indent:0;text-align:start;text-decoration-line:none;text-decoration-style:solid;text-decoration-color:#000;text-transform:none;block-progression:tb;isolation:auto;mix-blend-mode:normal" d="M11 3a1 1 0 0 0-.8 1.6L13 8.334v2.787l-.059-.078C8.118 14.693 5 20.489 5 27c0 6.249 2.876 11.834 7.373 15.502L10.199 45.4A1 1 0 0 0 11 47h28a1 1 0 0 0 .768-.36l5-6A1 1 0 0 0 44 39h-3.016A19.907 19.907 0 0 0 45 27c0-11.033-8.967-20-20-20-.336 0-.669.01-1 .025V4a1 1 0 0 0-1-1H11zm2 2h9v35a1 1 0 0 0 1 1h18.865l-3.334 4H13l1.8-2.4a1 1 0 0 0 .2-.6V8a1 1 0 0 0-.2-.6L13 5zm12 4c9.953 0 18 8.047 18 18 0 4.62-1.746 8.814-4.602 12h-2.826C38.898 36.067 41 31.776 41 27c0-8.824-7.176-16-16-16-.336 0-.669.013-1 .033v-1.98c.333-.019.662-.053 1-.053zm0 4c7.744 0 14 6.256 14 14 0 5.006-2.619 9.384-6.559 11.861a1 1 0 0 0-.002.002c-.074.047-.152.092-.228.137H24V13.037c.33-.023.663-.037 1-.037zm-12 .592v2.845A15.936 15.936 0 0 0 9 27c0 4.047 1.517 7.743 4 10.563v2.851A17.94 17.94 0 0 1 7 27c0-5.336 2.32-10.113 6-13.408zm0 6.215v14.386A13.907 13.907 0 0 1 11 27c0-2.637.736-5.091 2-7.193z" font-weight="400" font-family="sans-serif" white-space="normal" overflow="visible"/><metadata><rdf:RDF xmlns:rdf="http://www.w3.org/1999/02/22-rdf-syntax-ns#" xmlns:rdfs="http://www.w3.org/2000/01/rdf-schema#" xmlns:dc="http://purl.org/dc/elements/1.1/"><rdf:Description about="https://iconscout.com/legal#licenses" dc:title="league,of,legends" dc:description="league,of,legends" dc:publisher="Iconscout" dc:date="2017-12-09" dc:format="image/svg+xml" dc:language="en"><dc:creator><rdf:Bag><rdf:li>Icons8</rdf:li></rdf:Bag></dc:creator></rdf:Description></rdf:RDF></metadata></svg>