<?xml version="1.0" encoding="utf-8"?>
<!-- Generator: Adobe Illustrator 23.0.0, SVG Export Plug-In . SVG Version: 6.00 Build 0)  -->
<svg version="1.1" id="Camada_1" xmlns="http://www.w3.org/2000/svg" xmlns:xlink="http://www.w3.org/1999/xlink" x="0px" y="0px"
	 viewBox="0 0 768.5 985.3" style="enable-background:new 0 0 768.5 985.3;" xml:space="preserve">
<style type="text/css">
	.st0{fill:none;stroke:#000000;stroke-width:25;stroke-miterlimit:10;}
</style>
<title>Legends of Runeterra</title>
<path class="st0" d="M37.7,438.1c9.9,5.8,39.4,24.7,52,61.8c14.3,41.9,1.5,90.1-32.4,124.7L81.8,819l297.5,150.2l305.3-145.3
	l24.5-195.3c-34.2-27.5-51.2-70.7-44.2-112.9c9.2-55,55-81.2,60.9-84.4l28.5-330.8L599.2,16H164.3L12.1,95.5L37.7,438.1z"/>
<path class="st0" d="M179,88.6L77.9,137.7l13.7,264.1c0,0,115.9,105,19.6,243.4l11.8,147.2l256.2,112l253.2-109l18.7-148.2
	c0,0-102.1-124.6,17.7-249.3l12.8-260.2L580.5,88.6H179z"/>
<path class="st0" d="M218.3,153.4l26.5,51c0,0,3.9,5.8,5.9,21.6c2,15.8,0,491.8,0,491.8s-7.9,34.4-32.4,53h142.3
	c0,0-29.5-43.2-27.5-55c2-11.8,1-142.3,1-142.3l56.9-48.1l71.7,196.3c0,0,3.9,20.6-18.7,49.1h141.4c0,0-30.4-28.5-28.5-36.4
	l-98.2-268c0,0,97.2-113.9,74.6-221.8c-22.6-108-150.2-91.3-150.2-91.3H218.3z"/>
<path class="st0" d="M335.1,218.2h55c0,0,70.7,0,56.9,94.2c-13.7,94.2-53,103.1-111.9,158V218.2z"/>
</svg>
